<?xml version="1.0" encoding="utf-8"?><svg xmlns="http://www.w3.org/2000/svg" xmlns:xlink="http://www.w3.org/1999/xlink" width="1920" height="959" preserveAspectRatio="xMidYMid" viewBox="0 0 1920 959" style="z-index:1;margin-right:-2px;display:block;background-color:rgb(241, 242, 243);animation-play-state:paused" ><g transform="translate(960,479.5) scale(1,1) translate(-960,-479.5)" style="transform:matrix(1, 0, 0, 1, 0, 0);animation-play-state:paused" ><defs style="animation-play-state:paused" ><linearGradient id="lg-0.4579823668395502" x1="0" x2="0" y1="0" y2="1" style="animation-play-state:paused" ><stop stop-color="#93dbe9" offset="0.3" style="animation-play-state:paused" ></stop>

  
<stop stop-color="#689cc5" offset="0.6499999999999999" style="animation-play-state:paused" ></stop>

  
<stop stop-color="#689cc5" offset="1" style="animation-play-state:paused" ></stop></linearGradient>


<linearGradient id="fg-lg-0.4579823668395502" x1="0" x2="0" y1="0" y2="1" style="animation-play-state:paused" ><stop stop-color="#93dbe9" stop-opacity="1" offset="0.3" style="animation-play-state:paused" ></stop>

  
<stop stop-color="#689cc5" stop-opacity="0.66" offset="0.6499999999999999" style="animation-play-state:paused" ></stop>

  
<stop stop-color="#689cc5" stop-opacity="0" offset="1" style="animation-play-state:paused" ></stop></linearGradient>


<style type="text/css" style="animation-play-state:paused" >path { fill: none; stroke: #5e6fa3; stroke-width: 2px }</style></defs>


<rect x="0" y="0" width="1920" height="959" fill="url(#lg-0.4579823668395502)" style="animation-play-state:paused" ></rect>
<path d="M0 287.7 L-13440 959" style="animation-play-state:paused" ></path>
<path d="M14.76923076923077 287.7 L-13218.461538461539 959" style="animation-play-state:paused" ></path>
<path d="M29.53846153846154 287.7 L-12996.923076923076 959" style="animation-play-state:paused" ></path>
<path d="M44.30769230769231 287.7 L-12775.384615384615 959" style="animation-play-state:paused" ></path>
<path d="M59.07692307692308 287.7 L-12553.846153846154 959" style="animation-play-state:paused" ></path>
<path d="M73.84615384615384 287.7 L-12332.307692307691 959" style="animation-play-state:paused" ></path>
<path d="M88.61538461538461 287.7 L-12110.76923076923 959" style="animation-play-state:paused" ></path>
<path d="M103.38461538461539 287.7 L-11889.23076923077 959" style="animation-play-state:paused" ></path>
<path d="M118.15384615384616 287.7 L-11667.692307692309 959" style="animation-play-state:paused" ></path>
<path d="M132.92307692307693 287.7 L-11446.153846153846 959" style="animation-play-state:paused" ></path>
<path d="M147.69230769230768 287.7 L-11224.615384615385 959" style="animation-play-state:paused" ></path>
<path d="M162.46153846153845 287.7 L-11003.076923076922 959" style="animation-play-state:paused" ></path>
<path d="M177.23076923076923 287.7 L-10781.538461538461 959" style="animation-play-state:paused" ></path>
<path d="M192 287.7 L-10560 959" style="animation-play-state:paused" ></path>
<path d="M206.76923076923077 287.7 L-10338.461538461539 959" style="animation-play-state:paused" ></path>
<path d="M221.53846153846155 287.7 L-10116.923076923078 959" style="animation-play-state:paused" ></path>
<path d="M236.30769230769232 287.7 L-9895.384615384615 959" style="animation-play-state:paused" ></path>
<path d="M251.07692307692307 287.7 L-9673.846153846154 959" style="animation-play-state:paused" ></path>
<path d="M265.84615384615387 287.7 L-9452.307692307691 959" style="animation-play-state:paused" ></path>
<path d="M280.61538461538464 287.7 L-9230.76923076923 959" style="animation-play-state:paused" ></path>
<path d="M295.38461538461536 287.7 L-9009.23076923077 959" style="animation-play-state:paused" ></path>
<path d="M310.15384615384613 287.7 L-8787.692307692309 959" style="animation-play-state:paused" ></path>
<path d="M324.9230769230769 287.7 L-8566.153846153846 959" style="animation-play-state:paused" ></path>
<path d="M339.6923076923077 287.7 L-8344.615384615385 959" style="animation-play-state:paused" ></path>
<path d="M354.46153846153845 287.7 L-8123.076923076923 959" style="animation-play-state:paused" ></path>
<path d="M369.2307692307692 287.7 L-7901.538461538462 959" style="animation-play-state:paused" ></path>
<path d="M384 287.7 L-7680 959" style="animation-play-state:paused" ></path>
<path d="M398.7692307692308 287.7 L-7458.461538461538 959" style="animation-play-state:paused" ></path>
<path d="M413.53846153846155 287.7 L-7236.923076923077 959" style="animation-play-state:paused" ></path>
<path d="M428.3076923076923 287.7 L-7015.384615384615 959" style="animation-play-state:paused" ></path>
<path d="M443.0769230769231 287.7 L-6793.846153846154 959" style="animation-play-state:paused" ></path>
<path d="M457.84615384615387 287.7 L-6572.307692307692 959" style="animation-play-state:paused" ></path>
<path d="M472.61538461538464 287.7 L-6350.7692307692305 959" style="animation-play-state:paused" ></path>
<path d="M487.38461538461536 287.7 L-6129.2307692307695 959" style="animation-play-state:paused" ></path>
<path d="M502.15384615384613 287.7 L-5907.692307692308 959" style="animation-play-state:paused" ></path>
<path d="M516.9230769230769 287.7 L-5686.153846153846 959" style="animation-play-state:paused" ></path>
<path d="M531.6923076923077 287.7 L-5464.615384615385 959" style="animation-play-state:paused" ></path>
<path d="M546.4615384615385 287.7 L-5243.076923076924 959" style="animation-play-state:paused" ></path>
<path d="M561.2307692307693 287.7 L-5021.538461538461 959" style="animation-play-state:paused" ></path>
<path d="M576 287.7 L-4800 959" style="animation-play-state:paused" ></path>
<path d="M590.7692307692307 287.7 L-4578.461538461539 959" style="animation-play-state:paused" ></path>
<path d="M605.5384615384615 287.7 L-4356.923076923076 959" style="animation-play-state:paused" ></path>
<path d="M620.3076923076923 287.7 L-4135.384615384615 959" style="animation-play-state:paused" ></path>
<path d="M635.0769230769231 287.7 L-3913.8461538461543 959" style="animation-play-state:paused" ></path>
<path d="M649.8461538461538 287.7 L-3692.3076923076915 959" style="animation-play-state:paused" ></path>
<path d="M664.6153846153846 287.7 L-3470.7692307692305 959" style="animation-play-state:paused" ></path>
<path d="M679.3846153846154 287.7 L-3249.2307692307695 959" style="animation-play-state:paused" ></path>
<path d="M694.1538461538462 287.7 L-3027.6923076923085 959" style="animation-play-state:paused" ></path>
<path d="M708.9230769230769 287.7 L-2806.1538461538457 959" style="animation-play-state:paused" ></path>
<path d="M723.6923076923077 287.7 L-2584.6153846153848 959" style="animation-play-state:paused" ></path>
<path d="M738.4615384615385 287.7 L-2363.076923076924 959" style="animation-play-state:paused" ></path>
<path d="M753.2307692307693 287.7 L-2141.538461538461 959" style="animation-play-state:paused" ></path>
<path d="M768 287.7 L-1920 959" style="animation-play-state:paused" ></path>
<path d="M782.7692307692307 287.7 L-1698.461538461539 959" style="animation-play-state:paused" ></path>
<path d="M797.5384615384615 287.7 L-1476.9230769230762 959" style="animation-play-state:paused" ></path>
<path d="M812.3076923076923 287.7 L-1255.3846153846152 959" style="animation-play-state:paused" ></path>
<path d="M827.0769230769231 287.7 L-1033.8461538461543 959" style="animation-play-state:paused" ></path>
<path d="M841.8461538461538 287.7 L-812.3076923076915 959" style="animation-play-state:paused" ></path>
<path d="M856.6153846153846 287.7 L-590.7692307692305 959" style="animation-play-state:paused" ></path>
<path d="M871.3846153846154 287.7 L-369.2307692307695 959" style="animation-play-state:paused" ></path>
<path d="M886.1538461538462 287.7 L-147.69230769230853 959" style="animation-play-state:paused" ></path>
<path d="M900.9230769230769 287.7 L73.84615384615427 959" style="animation-play-state:paused" ></path>
<path d="M915.6923076923077 287.7 L295.38461538461524 959" style="animation-play-state:paused" ></path>
<path d="M930.4615384615385 287.7 L516.9230769230762 959" style="animation-play-state:paused" ></path>
<path d="M945.2307692307693 287.7 L738.461538461539 959" style="animation-play-state:paused" ></path>
<path d="M960 287.7 L960 959" style="animation-play-state:paused" ></path>
<path d="M974.7692307692307 287.7 L1181.538461538461 959" style="animation-play-state:paused" ></path>
<path d="M989.5384615384615 287.7 L1403.0769230769238 959" style="animation-play-state:paused" ></path>
<path d="M1004.3076923076923 287.7 L1624.6153846153848 959" style="animation-play-state:paused" ></path>
<path d="M1019.0769230769231 287.7 L1846.1538461538457 959" style="animation-play-state:paused" ></path>
<path d="M1033.8461538461538 287.7 L2067.6923076923085 959" style="animation-play-state:paused" ></path>
<path d="M1048.6153846153845 287.7 L2289.2307692307695 959" style="animation-play-state:paused" ></path>
<path d="M1063.3846153846155 287.7 L2510.7692307692305 959" style="animation-play-state:paused" ></path>
<path d="M1078.1538461538462 287.7 L2732.3076923076915 959" style="animation-play-state:paused" ></path>
<path d="M1092.923076923077 287.7 L2953.8461538461524 959" style="animation-play-state:paused" ></path>
<path d="M1107.6923076923076 287.7 L3175.384615384617 959" style="animation-play-state:paused" ></path>
<path d="M1122.4615384615386 287.7 L3396.923076923078 959" style="animation-play-state:paused" ></path>
<path d="M1137.2307692307693 287.7 L3618.461538461539 959" style="animation-play-state:paused" ></path>
<path d="M1152 287.7 L3840 959" style="animation-play-state:paused" ></path>
<path d="M1166.7692307692307 287.7 L4061.538461538461 959" style="animation-play-state:paused" ></path>
<path d="M1181.5384615384614 287.7 L4283.076923076922 959" style="animation-play-state:paused" ></path>
<path d="M1196.3076923076924 287.7 L4504.615384615383 959" style="animation-play-state:paused" ></path>
<path d="M1211.076923076923 287.7 L4726.153846153848 959" style="animation-play-state:paused" ></path>
<path d="M1225.8461538461538 287.7 L4947.6923076923085 959" style="animation-play-state:paused" ></path>
<path d="M1240.6153846153845 287.7 L5169.2307692307695 959" style="animation-play-state:paused" ></path>
<path d="M1255.3846153846155 287.7 L5390.7692307692305 959" style="animation-play-state:paused" ></path>
<path d="M1270.1538461538462 287.7 L5612.3076923076915 959" style="animation-play-state:paused" ></path>
<path d="M1284.923076923077 287.7 L5833.846153846152 959" style="animation-play-state:paused" ></path>
<path d="M1299.6923076923076 287.7 L6055.384615384617 959" style="animation-play-state:paused" ></path>
<path d="M1314.4615384615386 287.7 L6276.923076923078 959" style="animation-play-state:paused" ></path>
<path d="M1329.2307692307693 287.7 L6498.461538461539 959" style="animation-play-state:paused" ></path>
<path d="M1344 287.7 L6720 959" style="animation-play-state:paused" ></path>
<path d="M1358.7692307692307 287.7 L6941.538461538461 959" style="animation-play-state:paused" ></path>
<path d="M1373.5384615384614 287.7 L7163.076923076922 959" style="animation-play-state:paused" ></path>
<path d="M1388.3076923076924 287.7 L7384.615384615383 959" style="animation-play-state:paused" ></path>
<path d="M1403.076923076923 287.7 L7606.153846153848 959" style="animation-play-state:paused" ></path>
<path d="M1417.8461538461538 287.7 L7827.6923076923085 959" style="animation-play-state:paused" ></path>
<path d="M1432.6153846153845 287.7 L8049.2307692307695 959" style="animation-play-state:paused" ></path>
<path d="M1447.3846153846155 287.7 L8270.76923076923 959" style="animation-play-state:paused" ></path>
<path d="M1462.1538461538462 287.7 L8492.307692307691 959" style="animation-play-state:paused" ></path>
<path d="M1476.923076923077 287.7 L8713.846153846152 959" style="animation-play-state:paused" ></path>
<path d="M1491.6923076923076 287.7 L8935.384615384617 959" style="animation-play-state:paused" ></path>
<path d="M1506.4615384615386 287.7 L9156.923076923078 959" style="animation-play-state:paused" ></path>
<path d="M1521.2307692307693 287.7 L9378.461538461539 959" style="animation-play-state:paused" ></path>
<path d="M1536 287.7 L9600 959" style="animation-play-state:paused" ></path>
<path d="M1550.7692307692307 287.7 L9821.538461538461 959" style="animation-play-state:paused" ></path>
<path d="M1565.5384615384614 287.7 L10043.076923076922 959" style="animation-play-state:paused" ></path>
<path d="M1580.3076923076924 287.7 L10264.615384615383 959" style="animation-play-state:paused" ></path>
<path d="M1595.076923076923 287.7 L10486.153846153848 959" style="animation-play-state:paused" ></path>
<path d="M1609.8461538461538 287.7 L10707.692307692309 959" style="animation-play-state:paused" ></path>
<path d="M1624.6153846153845 287.7 L10929.23076923077 959" style="animation-play-state:paused" ></path>
<path d="M1639.3846153846155 287.7 L11150.76923076923 959" style="animation-play-state:paused" ></path>
<path d="M1654.1538461538462 287.7 L11372.307692307691 959" style="animation-play-state:paused" ></path>
<path d="M1668.923076923077 287.7 L11593.846153846152 959" style="animation-play-state:paused" ></path>
<path d="M1683.6923076923076 287.7 L11815.384615384617 959" style="animation-play-state:paused" ></path>
<path d="M1698.4615384615386 287.7 L12036.923076923078 959" style="animation-play-state:paused" ></path>
<path d="M1713.2307692307693 287.7 L12258.461538461539 959" style="animation-play-state:paused" ></path>
<path d="M1728 287.7 L12480 959" style="animation-play-state:paused" ></path>
<path d="M1742.7692307692307 287.7 L12701.538461538461 959" style="animation-play-state:paused" ></path>
<path d="M1757.5384615384614 287.7 L12923.076923076922 959" style="animation-play-state:paused" ></path>
<path d="M1772.3076923076924 287.7 L13144.615384615383 959" style="animation-play-state:paused" ></path>
<path d="M1787.076923076923 287.7 L13366.153846153848 959" style="animation-play-state:paused" ></path>
<path d="M1801.8461538461538 287.7 L13587.692307692309 959" style="animation-play-state:paused" ></path>
<path d="M1816.6153846153845 287.7 L13809.23076923077 959" style="animation-play-state:paused" ></path>
<path d="M1831.3846153846155 287.7 L14030.76923076923 959" style="animation-play-state:paused" ></path>
<path d="M1846.1538461538462 287.7 L14252.307692307691 959" style="animation-play-state:paused" ></path>
<path d="M1860.923076923077 287.7 L14473.846153846152 959" style="animation-play-state:paused" ></path>
<path d="M1875.6923076923076 287.7 L14695.384615384617 959" style="animation-play-state:paused" ></path>
<path d="M1890.4615384615386 287.7 L14916.923076923078 959" style="animation-play-state:paused" ></path>
<path d="M1905.2307692307693 287.7 L15138.461538461539 959" style="animation-play-state:paused" ></path>
<path d="M1920 287.7 L15360 959" style="animation-play-state:paused" ></path>
<g transform="matrix(1,0,0,1,0,0)" style="transform:matrix(1, 0, 0, 1, 0, 0);animation-play-state:paused" ><path d="M0 287.7 L1920 287.7" style="animation-play-state:paused" ></path></g>
<g transform="matrix(1,0,0,1,0,0)" style="transform:matrix(1, 0, 0, 1, 0, 0);animation-play-state:paused" ><path d="M0 292.7844023668639 L1920 292.7844023668639" style="animation-play-state:paused" ></path></g>
<g transform="matrix(1,0,0,1,0,0)" style="transform:matrix(1, 0, 0, 1, 0, 0);animation-play-state:paused" ><path d="M0 302.9532071005917 L1920 302.9532071005917" style="animation-play-state:paused" ></path></g>
<g transform="matrix(1,0,0,1,0,0)" style="transform:matrix(1, 0, 0, 1, 0, 0);animation-play-state:paused" ><path d="M0 318.20641420118346 L1920 318.20641420118346" style="animation-play-state:paused" ></path></g>
<g transform="matrix(1,0,0,1,0,0)" style="transform:matrix(1, 0, 0, 1, 0, 0);animation-play-state:paused" ><path d="M0 338.54402366863906 L1920 338.54402366863906" style="animation-play-state:paused" ></path></g>
<g transform="matrix(1,0,0,1,0,0)" style="transform:matrix(1, 0, 0, 1, 0, 0);animation-play-state:paused" ><path d="M0 363.96603550295856 L1920 363.96603550295856" style="animation-play-state:paused" ></path></g>
<g transform="matrix(1,0,0,1,0,0)" style="transform:matrix(1, 0, 0, 1, 0, 0);animation-play-state:paused" ><path d="M0 394.472449704142 L1920 394.472449704142" style="animation-play-state:paused" ></path></g>
<g transform="matrix(1,0,0,1,0,0)" style="transform:matrix(1, 0, 0, 1, 0, 0);animation-play-state:paused" ><path d="M0 430.0632662721893 L1920 430.0632662721893" style="animation-play-state:paused" ></path></g>
<g transform="matrix(1,0,0,1,0,0)" style="transform:matrix(1, 0, 0, 1, 0, 0);animation-play-state:paused" ><path d="M0 470.73848520710055 L1920 470.73848520710055" style="animation-play-state:paused" ></path></g>
<g transform="matrix(1,0,0,1,0,0)" style="transform:matrix(1, 0, 0, 1, 0, 0);animation-play-state:paused" ><path d="M0 516.4981065088757 L1920 516.4981065088757" style="animation-play-state:paused" ></path></g>
<g transform="matrix(1,0,0,1,0,0)" style="transform:matrix(1, 0, 0, 1, 0, 0);animation-play-state:paused" ><path d="M0 567.3421301775147 L1920 567.3421301775147" style="animation-play-state:paused" ></path></g>
<g transform="matrix(1,0,0,1,0,0)" style="transform:matrix(1, 0, 0, 1, 0, 0);animation-play-state:paused" ><path d="M0 623.2705562130177 L1920 623.2705562130177" style="animation-play-state:paused" ></path></g>
<g transform="matrix(1,0,0,1,0,0)" style="transform:matrix(1, 0, 0, 1, 0, 0);animation-play-state:paused" ><path d="M0 684.2833846153845 L1920 684.2833846153845" style="animation-play-state:paused" ></path></g>
<g transform="matrix(1,0,0,1,0,0)" style="transform:matrix(1, 0, 0, 1, 0, 0);animation-play-state:paused" ><path d="M0 750.3806153846153 L1920 750.3806153846153" style="animation-play-state:paused" ></path></g>
<g transform="matrix(1,0,0,1,0,0)" style="transform:matrix(1, 0, 0, 1, 0, 0);animation-play-state:paused" ><path d="M0 821.56224852071 L1920 821.56224852071" style="animation-play-state:paused" ></path></g>
<g transform="matrix(1,0,0,1,0,0)" style="transform:matrix(1, 0, 0, 1, 0, 0);animation-play-state:paused" ><path d="M0 897.8282840236686 L1920 897.8282840236686" style="animation-play-state:paused" ></path></g>
<g transform="matrix(1,0,0,1,0,0)" style="transform:matrix(1, 0, 0, 1, 0, 0);animation-play-state:paused" ><path d="M0 979.1787218934911 L1920 979.1787218934911" style="animation-play-state:paused" ></path></g>
<rect x="0" y="0" width="1920" height="959" fill="url(#fg-lg-0.4579823668395502)" style="animation-play-state:paused" ></rect></g></svg>